<svg xmlns="http://www.w3.org/2000/svg" viewBox="0 0 27.09 27.1"><g id="Layer_2" data-name="Layer 2"><g id="Main"><path d="M27.09,13.56a13.24,13.24,0,0,1-4.24,9.83,13,13,0,0,1-9.31,3.71,13.15,13.15,0,0,1-9.83-4.23A13.13,13.13,0,0,1,0,12.88a13.08,13.08,0,0,1,4.05-9A13.15,13.15,0,0,1,14.09,0a13.21,13.21,0,0,1,9.52,4.47A13.27,13.27,0,0,1,27.09,13.56Zm-2.53-.06A10.87,10.87,0,0,0,21.5,5.92a10.63,10.63,0,0,0-7.63-3.38A10.94,10.94,0,0,0,2.55,13.05a10.7,10.7,0,0,0,3.67,8.73,10.59,10.59,0,0,0,7.33,2.79,10.68,10.68,0,0,0,7.78-3.22A10.93,10.93,0,0,0,24.56,13.5Z"/><path d="M12.28,11.43c0-1.11,0-2.23,0-3.35a1.28,1.28,0,0,1,.35-.91,1.23,1.23,0,0,1,1.22-.35,1.15,1.15,0,0,1,.91.95,2,2,0,0,1,.05.42c0,2.18,0,4.36,0,6.54a1.24,1.24,0,0,1-1.24,1.36,1.22,1.22,0,0,1-1.19-.89,3.73,3.73,0,0,1-.09-.67Z"/><path d="M13.53,21.18a1.6,1.6,0,0,1-1.62-1.64,1.57,1.57,0,0,1,1.64-1.69,1.57,1.57,0,0,1,1.63,1.7A1.61,1.61,0,0,1,13.53,21.18Z"/></g></g></svg>