<svg xmlns="http://www.w3.org/2000/svg" viewBox="0 0 33.02 32.14"><g id="Layer_2" data-name="Layer 2"><g id="Main"><path d="M13.46,22.72a2.78,2.78,0,0,0-.74,1.14q-.13.45-.24.9a.31.31,0,0,1-.2.25,5.29,5.29,0,0,1-2,.32,2.55,2.55,0,0,1-1.79-.69,6.5,6.5,0,0,1-1.1-1.35,3,3,0,0,0-1-1,2.58,2.58,0,0,0-1.71-.44s-.07,0-.1,0-.23.12-.35.18a1.41,1.41,0,0,0,.18.29,5.34,5.34,0,0,0,.65.61,5.28,5.28,0,0,1,1.69,2.32,3,3,0,0,0,1.38,1.68,4.56,4.56,0,0,0,1.4.39,8.16,8.16,0,0,0,2.61,0h.26a1.8,1.8,0,0,1,0,.22v3.74a2.62,2.62,0,0,1,0,.28.56.56,0,0,1-.38.5,1.41,1.41,0,0,1-1,0,16.93,16.93,0,0,1-4.73-2.56,15.87,15.87,0,0,1-2.88-2.91A16.34,16.34,0,0,1,.3,19.47a16.8,16.8,0,0,1-.25-4.42A16.81,16.81,0,0,1,1.64,8.86,15.62,15.62,0,0,1,11.6.62a15.34,15.34,0,0,1,3-.53C15.31,0,16,0,16.74,0a17.46,17.46,0,0,1,5.72,1.07,15.73,15.73,0,0,1,5.92,3.8,15.8,15.8,0,0,1,3.33,4.87,15.45,15.45,0,0,1,1.06,3.67,16.56,16.56,0,0,1,.21,4,17.73,17.73,0,0,1-1.52,6.07,15.87,15.87,0,0,1-4.6,5.89,16.3,16.3,0,0,1-4.93,2.68A1.17,1.17,0,0,1,21,32a.58.58,0,0,1-.3-.57c0-1.84,0-3.67,0-5.51a8.79,8.79,0,0,0-.12-1.35A3,3,0,0,0,20,23a4,4,0,0,0-.36-.35l.57-.07a12.82,12.82,0,0,0,3.42-.74,5,5,0,0,0,3.27-3.6,11.66,11.66,0,0,0,.35-3.58,4.14,4.14,0,0,0-.87-2.29c-.24-.31-.5-.59-.74-.89a.23.23,0,0,1-.05-.19,6.22,6.22,0,0,0,.1-3.5c-.07-.27-.16-.53-.23-.8a.2.2,0,0,0-.21-.17,3.27,3.27,0,0,0-1.72.29A11.71,11.71,0,0,0,20.86,8.6a.34.34,0,0,1-.24,0,15.39,15.39,0,0,0-2.79-.5,16.08,16.08,0,0,0-2.86,0,15.68,15.68,0,0,0-2.44.47.33.33,0,0,1-.25-.06A15.68,15.68,0,0,0,9.2,7a2.8,2.8,0,0,0-1.28-.13A.22.22,0,0,0,7.74,7,8.27,8.27,0,0,0,7.3,9a8.52,8.52,0,0,0,.23,2.25.31.31,0,0,1,0,.23,5.2,5.2,0,0,0-1.43,4.07A11.34,11.34,0,0,0,6.66,19a4.22,4.22,0,0,0,2,2.4,11.16,11.16,0,0,0,4.52,1.26l.2,0Z"/><path d="M12,25.49c.16,0,.31,0,.34.21s-.21.29-.38.29-.3,0-.32-.22S11.76,25.49,12,25.49Z"/><path d="M8.44,25.22s-.11.09-.18.09a.39.39,0,0,1-.38-.41.17.17,0,0,1,.18-.19A.47.47,0,0,1,8.44,25.22Z"/><path d="M9.37,26C9.18,26,9,25.8,9,25.67s.13-.2.26-.2.42.11.4.27S9.52,26,9.37,26Z"/><path d="M10.7,25.7c.12,0,.3,0,.32.2s-.18.25-.35.24-.35-.12-.34-.25S10.47,25.69,10.7,25.7Z"/><path d="M7.19,23.79a.35.35,0,0,1,.36.39c0,.06-.1.16-.16.16A.34.34,0,0,1,7.07,24C7.08,23.9,7.16,23.83,7.19,23.79Z"/><path d="M7,23.21c-.11.08-.16.15-.22.17s-.34-.19-.32-.31.14-.17.16-.16S6.81,23.09,7,23.21Z"/><path d="M6.2,22.59c-.06,0-.15.11-.18.09a1.23,1.23,0,0,1-.28-.23c.06,0,.14-.12.2-.1a.73.73,0,0,1,.27.15Z"/></g></g></svg>