<svg xmlns="http://www.w3.org/2000/svg" viewBox="0 0 30.47 30.51"><g id="Layer_2" data-name="Layer 2"><g id="Main"><path d="M0,15.21V4.51A4.31,4.31,0,0,1,2.9.3,5,5,0,0,1,4.58,0H25.9A4.4,4.4,0,0,1,30.47,4.6V25.92a4.44,4.44,0,0,1-4.56,4.58q-10.68,0-21.37,0A4.42,4.42,0,0,1,0,25.91ZM23.47,8.43a1.6,1.6,0,0,0-.84-1.27,1.45,1.45,0,0,0-1.62,0c-.22.14-.43.32-.66.48A2.19,2.19,0,0,1,16.94,6.3c-.05-.25-.06-.51-.11-.76a1.62,1.62,0,0,0-3.19,0c0,.19-.06.38-.09.57a2.2,2.2,0,0,1-2.32,2,2.78,2.78,0,0,1-1.62-.78,1.56,1.56,0,0,0-2.09.09,1.61,1.61,0,0,0-.28,2.05c.14.22.31.42.45.63a2.17,2.17,0,0,1-1.31,3.4c-.3.07-.62.1-.92.17a1.61,1.61,0,0,0-1.2,1.53,1.58,1.58,0,0,0,1,1.53,5.46,5.46,0,0,0,.91.2A2.17,2.17,0,0,1,7.63,20.4a4.55,4.55,0,0,0-.44.64,1.62,1.62,0,0,0,.25,1.89,1.59,1.59,0,0,0,1.8.36A4.6,4.6,0,0,0,10,22.8a2.16,2.16,0,0,1,3.48,1.13c.08.29.11.59.17.88a1.5,1.5,0,0,0,1,1.21,1.64,1.64,0,0,0,1.69-.28,2,2,0,0,0,.59-1.42,2.09,2.09,0,0,1,1.3-1.83,2.17,2.17,0,0,1,2.3.33,4.35,4.35,0,0,0,.8.48,1.57,1.57,0,0,0,1.75-.4,1.61,1.61,0,0,0,.24-1.83,4.14,4.14,0,0,0-.48-.7,2.17,2.17,0,0,1,1.45-3.49,4.85,4.85,0,0,0,.53-.08,1.62,1.62,0,0,0,0-3.21c-.27-.05-.54-.09-.8-.15a2.09,2.09,0,0,1-1.64-1.82,2.23,2.23,0,0,1,.52-1.74A2.06,2.06,0,0,0,23.47,8.43Z"/><path d="M15.2,13.1A2.08,2.08,0,0,1,13,15.24,2.11,2.11,0,0,1,10.89,13a2.08,2.08,0,0,1,2.22-2.1A2,2,0,0,1,15.2,13.1Z"/><path d="M19,17.43a1.61,1.61,0,1,1-3.22,0,1.61,1.61,0,0,1,3.22,0Z"/></g></g></svg>