<svg xmlns="http://www.w3.org/2000/svg" viewBox="0 0 13.81 13.81"><g id="Layer_2" data-name="Layer 2"><g id="Main"><path d="M9.08,10a5.49,5.49,0,0,1-4.54,1.11,5.36,5.36,0,0,1-3.32-2,5.65,5.65,0,0,1,.39-7.46,5.63,5.63,0,0,1,7.55-.36,5.46,5.46,0,0,1,2,3.75A5.5,5.5,0,0,1,10,9.11l.11.09,3.45,3.44a1.5,1.5,0,0,1,.19.25.6.6,0,0,1-.11.76.66.66,0,0,1-.79.06.87.87,0,0,1-.22-.17L9.17,10.11ZM5.61,1.28A4.3,4.3,0,0,0,1.29,5.61,4.26,4.26,0,0,0,5.61,9.92,4.25,4.25,0,0,0,9.92,5.61,4.3,4.3,0,0,0,5.61,1.28Z"/></g></g></svg>