<svg xmlns="http://www.w3.org/2000/svg" viewBox="0 0 27.06 27.04"><g id="Layer_2" data-name="Layer 2"><g id="Main"><path d="M0,13.52A13.53,13.53,0,1,1,13.54,27,13.5,13.5,0,0,1,0,13.52Zm11.8,8h0c0,.32,0,.64,0,.95a1.18,1.18,0,0,0,1.62,1.15,2.45,2.45,0,0,0,1.77-2A3.31,3.31,0,0,1,17,19.08a2.75,2.75,0,0,0,1.59-2.37,3,3,0,0,0-3-3.27,16.68,16.68,0,0,1-2,0,5.11,5.11,0,0,1-1.56-.33A15.57,15.57,0,0,1,10,11.94a1,1,0,0,1-.33-1.3,1.71,1.71,0,0,1,1.74-.75l1.33.4A1,1,0,0,0,14,9.89a1.07,1.07,0,0,0-.14-1.29L13.29,8a1.64,1.64,0,0,1-.08-2.25c.28-.39.59-.77.89-1.16a1.65,1.65,0,0,0,.14-1.82.36.36,0,0,0-.42-.24,22.81,22.81,0,0,0-2.89.33A10.79,10.79,0,0,0,3.3,9.4a1.45,1.45,0,0,0,.09,1.41,3.7,3.7,0,0,0,2.29,1.86c1,.26,1.89.55,2.82.84a2,2,0,0,1,1.63,2.23c0,.61,0,1.22,0,1.84a1.47,1.47,0,0,0,.77,1.35,1.63,1.63,0,0,1,.89,1.32C11.83,20.67,11.8,21.09,11.8,21.51ZM23.17,8.15l-1.29.51a1.65,1.65,0,0,0-1,2.2c.26.84.52,1.67.8,2.5a1.44,1.44,0,0,0,.76,1c.65.25,1.32.44,2,.67A11.29,11.29,0,0,0,23.17,8.15Z"/></g></g></svg>